
<svg xmlns="http://www.w3.org/2000/svg" width="1024" height="1024" viewBox="0 0 1024 1024">
  
  <g transform="translate(512, 540)">
    <!-- left ear -->
    <ellipse cx="-260" cy="-30" rx="90" ry="120" fill="#16A34A" transform="rotate(-25 -260 -30)"/>
    <ellipse cx="-260" cy="-30" rx="40" ry="70" fill="#15803D" opacity="0.25" transform="rotate(-25 -260 -30)"/>
    <!-- right ear -->
    <ellipse cx="260" cy="-30" rx="90" ry="120" fill="#16A34A" transform="rotate(25 260 -30)"/>
    <ellipse cx="260" cy="-30" rx="40" ry="70" fill="#15803D" opacity="0.25" transform="rotate(25 260 -30)"/>
    <!-- horns -->
    <path d="M -150 -260 Q -190 -340 -120 -360 Q -100 -300 -130 -240 Z" fill="#16A34A"/>
    <path d="M 150 -260 Q 190 -340 120 -360 Q 100 -300 130 -240 Z" fill="#16A34A"/>
    <!-- head (rounded square) -->
    <rect x="-220" y="-200" width="440" height="380" rx="160" ry="160" fill="#16A34A"/>
    <!-- spots -->
    <ellipse cx="-110" cy="-100" rx="55" ry="40" fill="#15803D" opacity="0.18"/>
    <ellipse cx="140" cy="-140" rx="38" ry="28" fill="#15803D" opacity="0.18"/>
    <!-- snout -->
    <ellipse cx="0" cy="100" rx="180" ry="120" fill="#15803D" opacity="0.20"/>
    <!-- nostrils -->
    <ellipse cx="-55" cy="100" rx="14" ry="20" fill="#15803D"/>
    <ellipse cx="55" cy="100" rx="14" ry="20" fill="#15803D"/>
    <!-- eyes -->
    <circle cx="-95" cy="-20" r="22" fill="#15803D"/>
    <circle cx="95" cy="-20" r="22" fill="#15803D"/>
    <!-- eye highlights -->
    <circle cx="-87" cy="-28" r="8" fill="#16A34A"/>
    <circle cx="103" cy="-28" r="8" fill="#16A34A"/>
    <!-- smile -->
    <path d="M -45 165 Q 0 195 45 165" stroke="#15803D" stroke-width="8" stroke-linecap="round" fill="none"/>
  </g>
</svg>